<?xml version="1.0" standalone="no"?>
<!DOCTYPE svg PUBLIC "-//W3C//DTD SVG 20010904//EN"
 "http://www.w3.org/TR/2001/REC-SVG-20010904/DTD/svg10.dtd">
<svg version="1.0" xmlns="http://www.w3.org/2000/svg"
 width="1800.000000pt" height="1800.000000pt" viewBox="0 0 1800.000000 1800.000000"
 preserveAspectRatio="xMidYMid meet">

<g transform="translate(0.000000,1800.000000) scale(0.100000,-0.100000)"
fill="#000000" stroke="none">
<path d="M9570 17489 c-30 -4 -100 -13 -155 -18 -118 -11 -244 -30 -265 -38
-8 -4 -42 -12 -75 -19 -88 -18 -170 -39 -255 -64 -41 -12 -93 -27 -115 -32
-22 -6 -44 -14 -50 -18 -5 -4 -26 -11 -45 -15 -19 -4 -41 -11 -50 -16 -8 -4
-62 -24 -120 -44 -58 -21 -118 -43 -135 -50 -16 -8 -91 -39 -165 -70 -74 -30
-144 -60 -155 -65 -11 -5 -69 -32 -128 -60 -60 -27 -111 -50 -113 -50 -2 0
-89 -41 -192 -91 -349 -170 -467 -227 -522 -252 -59 -26 -215 -98 -265 -122
-63 -30 -167 -75 -172 -75 -3 0 -27 -10 -52 -21 -80 -38 -103 -48 -231 -99
-112 -46 -148 -61 -215 -90 -11 -5 -63 -25 -115 -45 -52 -21 -108 -43 -125
-51 -16 -7 -73 -29 -125 -50 -52 -20 -114 -45 -137 -55 -23 -11 -47 -19 -53
-19 -5 0 -18 -4 -28 -10 -17 -9 -63 -29 -152 -64 -25 -10 -58 -24 -75 -31 -16
-7 -55 -23 -85 -35 -68 -28 -90 -38 -213 -95 -54 -25 -101 -45 -105 -45 -12 0
-367 -182 -472 -242 -137 -79 -349 -211 -425 -265 -323 -231 -448 -335 -695
-583 -213 -213 -346 -366 -468 -538 -47 -66 -185 -273 -198 -297 -6 -11 -20
-36 -32 -55 -100 -168 -199 -363 -272 -535 -12 -27 -27 -63 -35 -80 -28 -62
-45 -103 -45 -110 0 -4 -6 -21 -14 -38 -7 -18 -30 -79 -51 -137 -20 -58 -41
-114 -45 -125 -5 -11 -20 -60 -35 -110 -15 -49 -33 -109 -41 -133 -8 -23 -14
-51 -14 -60 0 -10 -4 -22 -9 -27 -5 -6 -14 -30 -19 -55 -19 -81 -34 -135 -42
-155 -8 -18 -15 -49 -53 -225 -7 -30 -15 -59 -18 -65 -4 -5 -10 -35 -14 -65
-4 -30 -10 -59 -14 -65 -6 -10 -12 -40 -45 -223 -8 -46 -18 -92 -21 -102 -3
-10 -13 -56 -21 -102 -8 -46 -21 -119 -30 -163 -8 -44 -21 -118 -30 -165 -15
-84 -22 -129 -64 -370 -27 -159 -45 -255 -64 -352 -9 -43 -23 -111 -31 -150
-31 -157 -54 -266 -69 -323 -8 -33 -20 -82 -26 -110 -6 -27 -15 -59 -20 -70
-5 -11 -14 -38 -19 -60 -21 -88 -33 -131 -42 -150 -4 -11 -20 -56 -35 -100
-29 -91 -28 -89 -80 -210 -67 -159 -157 -327 -319 -593 -11 -19 -68 -106 -179
-277 -117 -179 -103 -157 -191 -301 -75 -126 -215 -406 -215 -432 0 -5 -7 -23
-15 -38 -8 -16 -15 -36 -15 -45 0 -9 -3 -19 -7 -23 -4 -3 -8 -12 -10 -19 -13
-61 -25 -105 -33 -122 -42 -90 -42 -457 0 -550 5 -11 14 -40 21 -65 36 -143
210 -414 381 -596 152 -161 424 -421 548 -524 29 -25 91 -76 137 -115 45 -38
122 -102 170 -142 49 -39 117 -95 153 -125 36 -29 99 -80 140 -113 41 -33 124
-100 185 -150 60 -49 115 -93 120 -97 16 -12 267 -219 426 -350 42 -35 91 -76
110 -91 102 -83 231 -190 304 -252 45 -38 126 -106 180 -150 53 -44 129 -107
168 -140 39 -33 94 -78 122 -100 28 -22 89 -71 134 -110 89 -75 194 -162 331
-275 47 -38 118 -98 159 -132 40 -35 86 -72 101 -83 26 -19 108 -86 319 -262
47 -40 128 -107 179 -150 52 -43 133 -112 180 -153 48 -42 107 -92 132 -111
25 -20 79 -67 121 -105 42 -38 102 -91 133 -119 32 -27 112 -99 178 -160 66
-60 146 -132 179 -160 32 -27 112 -99 178 -160 154 -143 274 -244 364 -311 39
-29 77 -58 84 -63 7 -6 14 -11 17 -11 3 0 22 -12 43 -26 54 -36 273 -144 294
-144 10 0 20 -4 23 -9 3 -4 34 -14 68 -20 35 -7 74 -17 88 -22 14 -4 88 -13
165 -19 113 -9 171 -8 300 4 174 16 327 38 390 54 22 6 65 14 95 17 30 4 61
11 70 16 8 4 42 13 75 19 57 10 113 22 255 54 107 23 251 56 320 72 36 8 94
21 130 28 36 7 72 15 80 18 8 4 42 12 75 18 33 6 92 18 130 25 39 8 113 22
165 31 52 9 102 19 110 22 8 3 49 11 90 18 41 7 114 20 162 29 218 38 258 45
343 60 149 25 335 55 430 70 50 8 132 21 183 30 158 26 265 44 332 55 36 5 92
15 125 21 33 6 101 17 150 25 50 7 131 20 180 29 50 9 124 22 165 29 41 7 82
15 90 19 8 3 47 10 85 16 68 10 200 35 340 65 39 8 97 20 130 26 33 6 67 15
75 19 9 5 40 12 70 16 30 4 60 11 65 15 6 4 37 13 70 19 33 6 94 20 135 32 41
11 95 25 120 31 25 6 50 14 55 18 6 4 29 11 52 15 24 4 45 10 48 15 3 5 24 11
47 15 23 4 49 11 58 16 8 4 56 19 105 34 50 14 98 30 107 36 10 5 23 9 29 9 6
0 25 6 42 14 18 7 61 24 97 36 36 12 79 28 95 35 17 7 50 21 75 31 49 19 123
50 155 64 11 5 43 19 70 31 103 45 311 151 405 207 240 143 397 257 575 416
86 77 107 99 235 240 51 56 161 198 185 238 5 9 29 48 51 85 47 77 93 165 124
238 12 28 28 64 36 82 8 17 14 36 14 42 0 6 4 19 9 29 12 22 47 137 55 182 4
19 11 44 16 55 10 24 27 126 41 245 5 47 14 117 20 155 7 40 14 316 19 650 4
358 11 588 17 600 6 11 13 54 16 95 6 64 40 183 76 265 4 11 19 47 31 80 13
33 36 88 51 123 16 35 29 66 29 69 0 32 364 717 406 764 8 8 14 19 14 23 0 23
270 398 374 521 28 33 63 76 78 95 14 19 55 67 89 107 35 39 109 124 164 189
55 64 134 155 175 203 106 121 295 356 359 446 66 94 181 266 181 271 0 3 11
20 24 37 44 60 183 330 221 432 11 28 25 61 32 75 7 14 13 31 13 38 0 7 4 20
10 30 11 20 36 110 56 207 60 280 60 504 1 815 -22 116 -47 223 -56 240 -5 9
-12 31 -16 50 -4 19 -11 40 -15 45 -4 6 -11 26 -15 45 -4 19 -11 40 -14 45 -4
6 -16 33 -25 60 -54 151 -207 474 -320 675 -32 58 -72 130 -88 160 -35 64
-124 218 -138 240 -6 8 -16 26 -23 40 -7 14 -24 43 -38 65 -14 22 -29 47 -33
55 -4 8 -18 33 -31 55 -23 39 -66 113 -93 161 -7 12 -110 186 -228 386 -119
200 -225 379 -236 398 -11 19 -25 41 -30 48 -6 7 -18 26 -27 42 -15 29 -120
198 -151 245 -8 13 -31 49 -50 80 -54 87 -57 93 -183 277 -140 205 -142 207
-234 328 -128 169 -155 204 -192 246 -20 22 -56 65 -81 94 -186 224 -623 640
-815 775 -23 17 -55 40 -71 53 -73 57 -134 102 -139 102 -4 0 -32 19 -63 43
-53 40 -224 156 -247 167 -5 3 -77 46 -158 95 -160 97 -177 107 -312 180 -49
26 -101 55 -115 64 -28 19 -500 254 -600 299 -72 33 -202 93 -266 123 -22 10
-43 19 -46 19 -4 0 -41 16 -85 36 -43 20 -94 42 -113 51 -19 8 -44 18 -55 23
-11 5 -49 21 -85 35 -36 14 -74 30 -85 35 -11 5 -45 19 -75 30 -30 12 -64 26
-75 31 -11 5 -69 27 -130 49 -60 22 -119 45 -130 49 -68 30 -336 120 -475 160
-41 12 -83 26 -92 32 -10 5 -24 9 -32 9 -7 0 -36 7 -62 15 -107 32 -275 71
-374 86 -36 5 -72 14 -81 18 -8 5 -51 12 -95 16 -43 3 -88 10 -99 15 -58 26
-709 49 -835 29z"/>
<path d="M14560 2189 c-106 -10 -258 -37 -280 -49 -10 -6 -27 -10 -37 -10 -10
0 -31 -7 -47 -15 -15 -8 -33 -15 -40 -15 -6 0 -36 -13 -66 -28 -204 -105 -297
-212 -411 -477 -11 -25 -37 -132 -51 -205 -19 -104 11 -267 66 -360 94 -159
134 -204 267 -301 124 -91 303 -189 344 -189 7 0 16 -4 19 -9 4 -5 25 -12 49
-16 23 -4 66 -13 95 -22 62 -17 79 -15 247 38 166 52 322 167 414 304 113 168
166 274 193 390 16 70 14 236 -4 320 -17 81 -47 176 -59 190 -5 5 -9 16 -9 25
0 43 -107 216 -174 282 -111 108 -318 168 -516 147z"/>
</g>
</svg>
